<svg width="43" height="44" viewBox="0 0 43 44" fill="none" xmlns="http://www.w3.org/2000/svg">
<path fill-rule="evenodd" clip-rule="evenodd" d="M21.5 43.1365C9.62588 43.1365 0 33.4801 0 21.5683C0 9.65644 9.62588 0 21.5 0C33.3741 0 43 9.65644 43 21.5683C43 33.4801 33.3741 43.1365 21.5 43.1365ZM21.5 39.215C31.2152 39.215 39.0909 31.3143 39.0909 21.5683C39.0909 11.8222 31.2152 3.9215 21.5 3.9215C11.7848 3.9215 3.90912 11.8222 3.90912 21.5683C3.90912 31.3143 11.7848 39.215 21.5 39.215ZM27.9361 14.2995L17.5909 24.6776L13.1094 20.1818L10.3452 22.9547L17.5909 30.2234L30.7003 17.0724L27.9361 14.2995Z" fill="#9AD3A3"/>
</svg>
