<svg width="152" height="152" viewBox="0 0 152 152" fill="none" xmlns="http://www.w3.org/2000/svg">
<g filter="url(#filter0_d)">
<rect x="43" y="43" width="66" height="66" rx="11" fill="white"/>
</g>
<path fill-rule="evenodd" clip-rule="evenodd" d="M49.7172 76C49.7172 90.5156 61.4844 102.283 75.9999 102.283C90.5155 102.283 102.283 90.5156 102.283 76C102.283 61.4844 90.5155 49.7172 75.9999 49.7172C61.4844 49.7172 49.7172 61.4844 49.7172 76ZM97.504 76C97.504 87.8764 87.8763 97.5041 75.9999 97.5041C64.1236 97.5041 54.4959 87.8764 54.4959 76C54.4959 64.1236 64.1236 54.4959 75.9999 54.4959C87.8763 54.4959 97.504 64.1236 97.504 76Z" fill="black"/>
<path fill-rule="evenodd" clip-rule="evenodd" d="M76 57.9806L88.0129 76L76 94.0194L63.9871 76L76 57.9806ZM70.8638 80.3009L76 88.0052L81.1362 80.3009L76 82.869L70.8638 80.3009ZM68.4278 75.3531L76 63.9948L83.5722 75.3531L76 79.1392L68.4278 75.3531Z" fill="black"/>
<defs>
<filter id="filter0_d" x="0" y="0" width="152" height="152" filterUnits="userSpaceOnUse" color-interpolation-filters="sRGB">
<feFlood flood-opacity="0" result="BackgroundImageFix"/>
<feColorMatrix in="SourceAlpha" type="matrix" values="0 0 0 0 0 0 0 0 0 0 0 0 0 0 0 0 0 0 127 0"/>
<feMorphology radius="2" operator="dilate" in="SourceAlpha" result="effect1_dropShadow"/>
<feOffset/>
<feGaussianBlur stdDeviation="20.5"/>
<feColorMatrix type="matrix" values="0 0 0 0 0 0 0 0 0 0 0 0 0 0 0 0 0 0 0.21 0"/>
<feBlend mode="normal" in2="BackgroundImageFix" result="effect1_dropShadow"/>
<feBlend mode="normal" in="SourceGraphic" in2="effect1_dropShadow" result="shape"/>
</filter>
</defs>
</svg>
