<svg width="44" height="43" viewBox="0 0 44 43" fill="none" xmlns="http://www.w3.org/2000/svg">
<path fill-rule="evenodd" clip-rule="evenodd" d="M34.7577 38.7068L39.0073 34.4437L37.5106 28.9891L38.1626 27.4269L43.0834 24.6415V18.6129L38.1766 15.8158L37.5355 14.2564L39.051 8.799L34.7984 4.53911L29.3606 6.0401L27.8068 5.38655L25.0299 0.449738H19.0204L16.2322 5.37206L14.6781 6.01507L9.23882 4.49292L4.99287 8.75235L6.48935 14.2083L5.83787 15.767L0.916687 18.5527V24.5795L5.81902 27.3828L6.46068 28.9436L4.94546 34.4001L9.19302 38.6611L14.6317 37.1599L16.1857 37.8135L18.9626 42.7483H24.9705L27.7629 37.8303L29.3185 37.1867L34.7577 38.7068ZM35.1343 24.7256L33.4633 28.7291L34.7194 33.3068L33.63 34.3997L29.0764 33.1272L25.0839 34.779L22.7424 38.9028H21.2006L18.8785 34.7763L14.8922 33.0996L10.3265 34.3599L9.2389 33.2688L10.5074 28.7008L8.86092 24.6959L4.75002 22.3452V20.7983L8.86529 18.4688L10.5368 14.4696L9.28054 9.88942L10.3659 8.80064L14.9194 10.0749L18.9133 8.42253L21.2512 4.29524H22.7915L25.1136 8.42358L29.1001 10.1004L33.6667 8.8399L34.757 9.93209L33.4888 14.4992L35.1358 18.5054L39.25 20.8507V22.3959L35.1343 24.7256ZM22 29.291C17.7658 29.291 14.3334 25.8476 14.3334 21.6C14.3334 17.3524 17.7658 13.909 22 13.909C26.2342 13.909 29.6667 17.3524 29.6667 21.6C29.6667 25.8476 26.2342 29.291 22 29.291ZM25.8334 21.6C25.8334 23.7238 24.1171 25.4455 22 25.4455C19.8829 25.4455 18.1667 23.7238 18.1667 21.6C18.1667 19.4762 19.8829 17.7545 22 17.7545C24.1171 17.7545 25.8334 19.4762 25.8334 21.6Z" fill="#D39B46" fill-opacity="0.68"/>
</svg>
